inDegrees=no
num_controls=7
num_derivatives=13
num_iterations=79
num_multipliers=7
num_parameters=0
num_slacks=7
num_states=26
objective=0.448744
objective_accelerations=0.047510
objective_balance=0.007629
objective_effort=0.035946
objective_height=0.352717
objective_ligament=0.004943
solver_duration=1146.511605
status=Solve_Succeeded
success=true
DataType=double
version=3
OpenSimVersion=4.5
endheader
time	/jointset/ground_pelvis/pelvis_tilt/value	/jointset/ground_pelvis/pelvis_tx/value	/jointset/ground_pelvis/pelvis_ty/value	/jointset/hip_l/hip_flexion_l/value	/jointset/hip_l/hip_adduction_l/value	/jointset/hip_l/hip_rotation_l/value	/jointset/back/lumbar_extension/value	/jointset/patellofemoral_l/patellar_flexion_l/value	/jointset/knee_l/knee_flexion_l/value	/jointset/knee_l/knee_adduction_l/value	/jointset/knee_l/knee_rotation_l/value	/jointset/ankle_l/ankle_angle_l/value	/jointset/subtalar_l/subtalar_angle_l/value	/jointset/ground_pelvis/pelvis_tilt/speed	/jointset/ground_pelvis/pelvis_tx/speed	/jointset/ground_pelvis/pelvis_ty/speed	/jointset/hip_l/hip_flexion_l/speed	/jointset/hip_l/hip_adduction_l/speed	/jointset/hip_l/hip_rotation_l/speed	/jointset/back/lumbar_extension/speed	/jointset/patellofemoral_l/patellar_flexion_l/speed	/jointset/knee_l/knee_flexion_l/speed	/jointset/knee_l/knee_adduction_l/speed	/jointset/knee_l/knee_rotation_l/speed	/jointset/ankle_l/ankle_angle_l/speed	/jointset/subtalar_l/subtalar_angle_l/speed	/forceset/tau_hip_flexion_l	/forceset/tau_hip_adduction_l	/forceset/tau_hip_rotation_l	/forceset/tau_knee_flexion_l	/forceset/tau_ankle_angle_l	/forceset/tau_subtalar_angle_l	/forceset/tau_lumbar_extension	lambda_cid13_p0	lambda_cid13_p1	lambda_cid13_p2	lambda_cid13_p3	lambda_cid13_p4	lambda_cid13_p5	lambda_cid14_p0	/jointset/ground_pelvis/pelvis_tilt/accel	/jointset/ground_pelvis/pelvis_tx/accel	/jointset/ground_pelvis/pelvis_ty/accel	/jointset/hip_l/hip_flexion_l/accel	/jointset/hip_l/hip_adduction_l/accel	/jointset/hip_l/hip_rotation_l/accel	/jointset/back/lumbar_extension/accel	/jointset/patellofemoral_l/patellar_flexion_l/accel	/jointset/knee_l/knee_flexion_l/accel	/jointset/knee_l/knee_adduction_l/accel	/jointset/knee_l/knee_rotation_l/accel	/jointset/ankle_l/ankle_angle_l/accel	/jointset/subtalar_l/subtalar_angle_l/accel	gamma_cid13_p0	gamma_cid13_p1	gamma_cid13_p2	gamma_cid13_p3	gamma_cid13_p4	gamma_cid13_p5	gamma_cid14_p0
0.5	-0.4311075209203165	-0.073898908354011	0.7678205310845718	1.237884999097748	-0.3080175617974045	-0.04980953976896035	-0.3342885730373105	0.6729020222929123	0.6729020222929104	-0.1713739427472309	0.1712411465157322	0.03199820697473803	-0.04813074570149548	-0.7059731926905689	-0.2683300654081528	-0.4773784472798762	2.29568023243087	-0.04121012656705119	0.5821423849868546	-0.6189144429369335	1.726928789564007	1.726928789564019	-0.007729475208906128	0.01864790434164325	0.2231294690693775	-0.0171339055496358	-0.2407094276625436	0.04145666284890692	-0.02175774426095371	-0.206841660921596	0.1538339704201485	0.01770227478860486	0.2192840731129752	9.741186678177385	-12.09698236389076	4.61395950430758	-5.944692062068152	-610.3105650246963	-38.94292251346114	-29.15604901387826	0.6008121512051448	0.705846773049071	-0.2891301423649676	-1.516180421479403	0.5893106066129798	-0.182173791213409	1.867882745926148	-1.063216497898215	-1.063216497898205	0.06913894587123946	-0.1324280401101281	-0.0561895688664516	0.5789653079301204	-2.166006995243444e-07	-6.599198186966625e-07	1.164650991150368e-06	4.398794198472732e-08	-2.969750549312498e-07	3.265053032628172e-08	-2.562140708725155e-07
0.51	-0.4381357753812443	-0.07654661588282619	0.7630332219186245	1.260761963895878	-0.3084024593114869	-0.04399674364371461	-0.340384289488774	0.6901153322530889	0.6901153322530962	-0.1714525682873213	0.1714216112634887	0.03422550799311993	-0.04827560050727287	-0.6995939891203602	-0.2611892116366845	-0.479992137433856	2.279412384197713	-0.0358695993538987	0.580374374743959	-0.6001628965386496	1.715495053621998	1.715495053622005	-0.008181994644414041	0.01749799314031146	0.2222552103162891	-0.01194698827195765	-0.2483509175822072	0.0418256089824656	-0.02190014884132311	-0.2083358121920525	0.1540469696544542	0.01828112988357792	0.2252432982484321	9.588545520508937	-12.20601537266926	4.499256467072902	-5.960902723217188	-614.4607262035083	-38.59765430595584	-28.17406040875729	0.6689961894860228	0.7215587710762594	-0.2338668245951449	-1.727180792282549	0.4912690739307848	-0.180745712703145	1.888683209340535	-1.219117244701184	-1.219117244702587	-0.1304233236670616	-0.09863808623745965	-0.1143685500207818	0.4719819438835219	-2.711226256400752e-07	-5.105203260611064e-07	1.441982350650362e-06	1.054579228829561e-07	-3.200248106199221e-07	7.817340887029564e-08	-2.819331703988733e-07
0.52	-0.4450977334605583	-0.07912224405555061	0.7582225001766012	1.283467231458068	-0.3087369824943805	-0.03820295383527297	-0.3462905119517423	0.7072071718333753	0.7072071718333919	-0.1715413142088364	0.171592103814014	0.0364418015196728	-0.0483719007390341	-0.6927139163678597	-0.2539141941899929	-0.482060962495062	2.261340785242609	-0.03113526032926727	0.5783411216260435	-0.5810156452379258	1.702634713586028	1.702634713586022	-0.009753551493861201	0.01665346489534258	0.2209279707035709	-0.007422990746405088	-0.2559924075018713	0.04219455511602406	-0.02204255342169173	-0.2098299634625095	0.1542599688887597	0.01885998497855075	0.2312025233838887	9.428794749556516	-12.3172502332155	4.388841811743794	-5.98195506002818	-618.730295194226	-38.32790813299095	-27.18106755022224	0.7009859876635531	0.7326795080937315	-0.1801571238102009	-1.876930565868615	0.4680729689087688	-0.23522236621738	1.947023726414063	-1.348537316690773	-1.348537316690765	-0.1546685369166083	-0.0713514488302342	-0.1467857407924008	0.4463813575050019	-2.681603461029525e-07	-4.509871526911416e-07	1.437069793936044e-06	1.186657392571066e-07	-3.034667320107719e-07	9.992705571958586e-08	-2.734635151962983e-07
0.53	-0.4519885748449393	-0.08162462527157686	0.7533938881442566	1.305983624398276	-0.3090249423337377	-0.03243200963682147	-0.3520037228235388	0.7241638926242309	0.7241638926242395	-0.1716463879781524	0.1717550462888887	0.03864329458572589	-0.04842383698308834	-0.6853783895622677	-0.2465550037546109	-0.4835626606634346	2.241701656600837	-0.02634093156963032	0.5756570004885834	-0.5616127209316518	1.688530990118902	1.68853099011891	-0.01095033406752735	0.01592848278032262	0.219367844383724	-0.002837844176417405	-0.2632488707713739	0.04261401050125675	-0.02219982933991473	-0.2115701288573793	0.1546737673195635	0.01924397374965253	0.2367608737209009	9.328236159596031	-12.3577783239063	4.271219748909676	-5.968506133290794	-622.9483099214525	-38.00516674725743	-26.18734448699165	0.7611999807457529	0.7386207209983978	-0.1204176206945682	-2.042864637602516	0.5023400163255877	-0.3138572338621504	1.93899801119022	-1.468004228686332	-1.468004228684484	-0.05555807885636033	-0.07435494854972008	-0.1610391299022836	0.4834424169300495	-2.508129810460281e-07	-4.122708331618384e-07	1.354942446788828e-06	1.147000161628836e-07	-2.803881983305975e-07	1.177799888307969e-07	-2.568142571301233e-07
0.54	-0.4588037881705166	-0.08405319820130176	0.7485532108387595	1.328296533927213	-0.3092615134481316	-0.02669367669901494	-0.3575224902065814	0.7409742333070225	0.7409742333070233	-0.1717541045654581	0.1719104822714708	0.04082910377811623	-0.0484261495394058	-0.6775883046071273	-0.239152536929729	-0.4844740171255582	2.220644102988223	-0.02085751533661612	0.5718188694970481	-0.5421269474871317	1.673358691973255	1.673358691973273	-0.01028211509178317	0.01515216643682958	0.2177911959710192	0.002501746800946236	-0.2705053340408779	0.04303346588648941	-0.0223571052581378	-0.2133102942522491	0.1550875657503669	0.01962796252075427	0.242319224057913	9.223288117782548	-12.40086963524063	4.157813044569946	-5.97426474505349	-627.2515730290381	-37.7516954936648	-25.19441991632153	0.7918976175731979	0.7413347859937144	-0.06208878256038557	-2.160615560037142	0.6058904635842199	-0.4660243370326146	1.963593554063294	-1.562252252395699	-1.562252252395699	0.2183317729654601	-0.08161829452478336	-0.1500901593639938	0.5972702389801936	-2.17550202222514e-07	-3.965859263924163e-07	1.187385969800957e-06	9.173378131641718e-08	-2.500955441463112e-07	1.313172386573245e-07	-2.31115225682944e-07
